D:\PredSim\limbproperties\Ratio75_downhill20\Ratio75_downhill20_IK_walking_1.5.mot
version=1
nRows=4
nColumns=124
inDegrees=yes
endheader
                time	         pelvis_tilt	         pelvis_list	     pelvis_rotation	           pelvis_tx	           pelvis_ty	           pelvis_tz	       hip_flexion_r	     hip_adduction_r	      hip_rotation_r	        knee_angle_r	       ankle_angle_r	    subtalar_angle_r	         mtp_angle_r	       hip_flexion_l	     hip_adduction_l	      hip_rotation_l	        knee_angle_l	       ankle_angle_l	    subtalar_angle_l	         mtp_angle_l	    lumbar_extension	      lumbar_bending	     lumbar_rotation	          arm_flex_r	           arm_add_r	           arm_rot_r	        elbow_flex_r	          arm_flex_l	           arm_add_l	           arm_rot_l	        elbow_flex_l	glut_med1_r/activation	glut_med2_r/activation	glut_med3_r/activation	glut_min1_r/activation	glut_min2_r/activation	glut_min3_r/activation	semimem_r/activation	semiten_r/activation	bifemlh_r/activation	bifemsh_r/activation	    sar_r/activation	add_long_r/activation	add_brev_r/activation	add_mag1_r/activation	add_mag2_r/activation	add_mag3_r/activation	    tfl_r/activation	   pect_r/activation	   grac_r/activation	glut_max1_r/activation	glut_max2_r/activation	glut_max3_r/activation	iliacus_r/activation	  psoas_r/activation	quad_fem_r/activation	    gem_r/activation	   peri_r/activation	rect_fem_r/activation	vas_med_r/activation	vas_int_r/activation	vas_lat_r/activation	med_gas_r/activation	lat_gas_r/activation	 soleus_r/activation	tib_post_r/activation	flex_dig_r/activation	flex_hal_r/activation	tib_ant_r/activation	per_brev_r/activation	per_long_r/activation	per_tert_r/activation	ext_dig_r/activation	ext_hal_r/activation	glut_med1_l/activation	glut_med2_l/activation	glut_med3_l/activation	glut_min1_l/activation	glut_min2_l/activation	glut_min3_l/activation	semimem_l/activation	semiten_l/activation	bifemlh_l/activation	bifemsh_l/activation	    sar_l/activation	add_long_l/activation	add_brev_l/activation	add_mag1_l/activation	add_mag2_l/activation	add_mag3_l/activation	    tfl_l/activation	   pect_l/activation	   grac_l/activation	glut_max1_l/activation	glut_max2_l/activation	glut_max3_l/activation	iliacus_l/activation	  psoas_l/activation	quad_fem_l/activation	    gem_l/activation	   peri_l/activation	rect_fem_l/activation	vas_med_l/activation	vas_int_l/activation	vas_lat_l/activation	med_gas_l/activation	lat_gas_l/activation	 soleus_l/activation	tib_post_l/activation	flex_dig_l/activation	flex_hal_l/activation	tib_ant_l/activation	per_brev_l/activation	per_long_l/activation	per_tert_l/activation	ext_dig_l/activation	ext_hal_l/activation	 ercspn_r/activation	 ercspn_l/activation	 intobl_r/activation	 intobl_l/activation	 extobl_r/activation	 extobl_l/activation	
          0.97348318	          3.56144188	          7.48689723	          4.83244079	          1.44248822	          0.89222552	         -0.00920161	         28.59364973	         -7.81484626	         -9.34470832	        -14.97432900	        -26.52193788	         -3.37259780	         -0.01613233	         -8.19042696	         11.58282479	          8.44130577	        -30.97019153	         12.24573085	         -3.11908540	         20.37177863	          2.15037722	         -9.79403563	         -0.64126874	         -9.73625183	        -13.44978633	         14.27024448	         29.37062451	          1.13248960	        -13.93872308	         10.76108033	         31.73701024	          0.05000001	          0.05000003	          0.07328142	          0.05000010	          0.05000010	          0.05000015	          0.05000001	          0.05000003	          0.05000001	          0.12570522	          0.19137921	          0.05010007	          0.05000005	          0.05000003	          0.05000003	          0.05000001	          0.10406658	          0.06862883	          0.05000023	          0.05000004	          0.05000001	          0.05000000	          0.21599984	          0.22042936	          0.16529420	          0.15205960	          0.13441980	          0.05000018	          0.05000001	          0.05000001	          0.05000001	          0.10466618	          0.11570659	          0.07800480	          0.16395053	          0.06132932	          0.08974570	          0.05000000	          0.19708100	          0.12672584	          0.05000008	          0.05000001	          0.05000004	          0.51608911	          0.05817783	          0.05000000	          0.52249858	          0.14324061	          0.05811238	          0.05000033	          0.05000002	          0.05000004	          0.05000003	          0.05000013	          0.05676242	          0.10753335	          0.05000057	          0.05000059	          0.05000237	          0.11777239	          0.05000103	          0.05000008	          0.05000011	          0.05000008	          0.05000022	          0.14323940	          0.10593397	          0.05000001	          0.05000005	          0.05000001	          0.21047716	          0.10603823	          0.10603824	          0.10602259	          0.20214119	          0.23718166	          0.49532456	          0.21889320	          0.18950655	          0.21518346	          0.05000000	          0.05000010	          0.05832191	          0.05000003	          0.05000000	          0.05000003	          0.05000000	          0.05000000	          0.15023895	          0.05000002	          0.09343814	          0.05000001	
          0.98321801	          3.58526802	          7.64226430	          5.05320555	          1.46052647	          0.89044164	         -0.00911222	         29.04349463	         -7.98759200	         -9.39037816	        -15.10599880	        -27.76102599	         -4.04122779	         -0.05085477	         -9.14796726	         11.36850779	          8.16357816	        -31.49204860	         11.62219865	         -2.11509925	         21.41915754	          2.34151296	         -9.81383894	         -0.76474270	        -10.42189433	        -13.45036343	         14.02087516	         29.34778156	          0.71706004	        -14.03999160	         10.82506640	         32.08770089	          0.05000000	          0.05000001	          0.06305151	          0.05000003	          0.05000003	          0.05000006	          0.05000002	          0.05000002	          0.05000002	          0.10815704	          0.16466309	          0.05811525	          0.05000014	          0.05000012	          0.05000004	          0.05000001	          0.08953931	          0.05905093	          0.05000019	          0.05000004	          0.05000002	          0.05000002	          0.18584674	          0.18965791	          0.15392371	          0.13083244	          0.11565513	          0.05421741	          0.05000004	          0.05000004	          0.05000003	          0.09005503	          0.09955423	          0.08154975	          0.18416044	          0.05276800	          0.07721763	          0.05000000	          0.20470252	          0.13507502	          0.05000017	          0.05000004	          0.05000006	          0.45915375	          0.05005633	          0.05000000	          0.52414928	          0.12324455	          0.05000005	          0.05000038	          0.05000002	          0.05000004	          0.05000003	          0.05000012	          0.07076796	          0.16995163	          0.05000052	          0.05000055	          0.06428772	          0.10133168	          0.05146312	          0.05000006	          0.05000008	          0.05000006	          0.05000015	          0.12324353	          0.15351526	          0.05000000	          0.05000003	          0.05000001	          0.18109501	          0.09123553	          0.09123554	          0.09122207	          0.18140857	          0.21421124	          0.45454277	          0.18833621	          0.16305200	          0.18514439	          0.05000000	          0.05000010	          0.06472810	          0.05000003	          0.05000000	          0.05000003	          0.05000000	          0.05000000	          0.15625333	          0.05000001	          0.08225727	          0.05000000	
          0.99295284	          3.61349750	          7.76086755	          5.25286136	          1.47882149	          0.88853414	         -0.00898344	         29.49782387	         -8.11541267	         -9.38495246	        -15.69068938	        -28.21446036	         -4.77407878	         -0.07047472	         -9.93577830	         11.11777760	          7.84683365	        -32.33577590	         10.80220344	         -1.09306000	         22.54507744	          2.54650708	         -9.77885506	         -0.88832636	        -11.10549923	        -13.45618243	         13.77043690	         29.30369091	          0.26889032	        -14.14755516	         10.91423429	         32.38821519	          0.05000008	          0.05000017	          0.05520758	          0.05000017	          0.05000022	          0.05000025	          0.05632486	          0.05000075	          0.05483785	          0.09305855	          0.14167649	          0.05000263	          0.05012679	          0.06438094	          0.05000183	          0.05996612	          0.08399038	          0.05080775	          0.05000071	          0.05000047	          0.06063289	          0.06659039	          0.15990294	          0.16318208	          0.13243630	          0.11256854	          0.09950995	          0.05922278	          0.06534504	          0.06749232	          0.06611567	          0.07748357	          0.08565670	          0.07016585	          0.21336473	          0.05000023	          0.06755170	          0.05000002	          0.21320643	          0.14529907	          0.05001349	          0.06870310	          0.05000014	          0.39505689	          0.05000000	          0.05000000	          0.45097921	          0.10603990	          0.05000003	          0.05000037	          0.05000004	          0.05000009	          0.05000002	          0.05000006	          0.17399902	          0.16766372	          0.05000050	          0.05000060	          0.09299500	          0.08718604	          0.05000026	          0.05000005	          0.05000007	          0.05000006	          0.05000015	          0.10603901	          0.19451775	          0.05000000	          0.05000002	          0.05000000	          0.15581454	          0.07849925	          0.07849926	          0.07848767	          0.15608433	          0.18430784	          0.39944909	          0.16204489	          0.14029035	          0.15929866	          0.05000000	          0.05000008	          0.06229857	          0.05000003	          0.05000001	          0.05000004	          0.05000000	          0.05000000	          0.15736092	          0.05000001	          0.07849923	          0.05010623	
          1.00268767	          3.64566856	          7.83895433	          5.42832421	          1.49731541	          0.88646236	         -0.00881957	         29.93578347	         -8.18973311	         -9.32974198	        -16.76731968	        -27.73846248	         -5.57501971	         -0.04955685	        -10.52689140	         10.83402812	          7.49338234	        -33.54231605	          9.80542042	         -0.06311871	         23.65951744	          2.76049939	         -9.68364697	         -1.01049653	        -11.77269941	        -13.47092324	         13.52549776	         29.22697303	         -0.19958615	        -14.25769456	         11.02779681	         32.63179323	          0.06470119	          0.05150824	          0.07139983	          0.05000032	          0.05000040	          0.05000304	          0.05502145	          0.05000032	          0.05583682	          0.08006778	          0.12189877	          0.05000023	          0.05000028	          0.05755151	          0.05810747	          0.08355569	          0.07226753	          0.05000042	          0.05000027	          0.06643680	          0.09057497	          0.10066516	          0.13758084	          0.14040222	          0.11394849	          0.09685423	          0.08561861	          0.05178544	          0.09634181	          0.09703071	          0.09444857	          0.06666704	          0.07369923	          0.07580018	          0.25003499	          0.05704277	          0.09608764	          0.05000008	          0.22019333	          0.15653139	          0.07921658	          0.07476728	          0.05000038	          0.33990781	          0.05000000	          0.05000000	          0.38802350	          0.09123698	          0.05000002	          0.06376057	          0.05000008	          0.05000010	          0.05000009	          0.05000016	          0.25609298	          0.19263565	          0.05000042	          0.05000048	          0.08001334	          0.07501509	          0.06117719	          0.05000007	          0.05000005	          0.05000004	          0.05000010	          0.09123620	          0.23013521	          0.05000000	          0.05000001	          0.05000000	          0.13406317	          0.06754093	          0.06754093	          0.06753096	          0.13429530	          0.15857887	          0.34368686	          0.13942377	          0.12070615	          0.13706093	          0.06344590	          0.05000026	          0.06968772	          0.05000009	          0.11740931	          0.05000015	          0.05000000	          0.05000000	          0.13539368	          0.05000000	          0.06754096	          0.05000011	
